<?xml version="1.0" standalone="no"?><!DOCTYPE svg PUBLIC "-//W3C//DTD SVG 1.1//EN" "http://www.w3.org/Graphics/SVG/1.1/DTD/svg11.dtd"><svg t="1754463077910" class="icon" viewBox="0 0 1024 1024" version="1.1" xmlns="http://www.w3.org/2000/svg" p-id="4501" xmlns:xlink="http://www.w3.org/1999/xlink" width="200" height="200"><path d="M793.6 1024H230.4C119.466667 1024 29.866667 930.133333 29.866667 814.933333V209.066667C25.6 93.866667 115.2 0 230.4 0h567.466667c110.933333 0 200.533333 93.866667 200.533333 209.066667V810.666667c0 119.466667-89.6 213.333333-204.8 213.333333zM230.4 72.533333C157.866667 72.533333 98.133333 136.533333 98.133333 213.333333v601.6c0 76.8 59.733333 140.8 132.266667 140.8h567.466667c72.533333 0 132.266667-64 132.266666-140.8V209.066667c0-76.8-59.733333-140.8-132.266666-140.8H230.4z m0 0" p-id="4502"></path><path d="M281.6 691.2h409.6v72.533333H281.6v-72.533333z m128-132.266667l298.666667-311.466666L755.2 298.666667l-298.666667 311.466666-46.933333-51.2z m0 0" p-id="4503"></path></svg>